<svg xmlns="http://www.w3.org/2000/svg" version="1.1" xmlns:xlink="http://www.w3.org/1999/xlink" width="2000" height="2000" viewBox="0 0 2000 2000"><svg xml:space="preserve" width="2000" height="2000" data-version="2" data-id="lg_MGmBdwU05cWPRZDc5U" viewBox="0 0 439 439" x="0" y="0">
    <path fill="#FFDC00" d="M216.808 429.306C99.543 429.217 4.486 334.21 4.338 216.943 4.425 99.609 99.474 4.489 216.807 4.311c117.334.178 212.382 95.298 212.471 212.632-.148 117.245-95.172 212.245-212.417 212.363m0-387.96c-96.912.12-175.43 78.684-175.489 175.597 0 96.92 78.57 175.49 175.49 175.49 96.92 0 175.488-78.57 175.488-175.49-.089-96.9-78.588-175.448-175.489-175.597"></path>
    <path fill="#FFDC00" d="M337.874 166.396a17.603 17.603 0 0 0-24.762 4.683l-31.33 45.703-21.747-31.545-1.077-1.777-13.673-19.756-6.783-10.066-6.836 10.066-5.06 7.375h-.108l-31.33 45.703-21.532-31.545-21.694-31.6-6.836 10.121-13.727 20.025-1.023 1.454-39.458 57.383a17.872 17.872 0 1 0 29.66 19.918l31.33-45.595 21.64 31.545 1.13 1.723 13.62 19.702 6.837 10.066 6.836-9.905 5.006-7.536h.162l31.222-45.595 21.694 31.545 21.694 31.491 6.836-9.905 13.727-20.186 1.023-1.4 39.35-57.33c5.451-8.186 3.29-19.235-4.844-24.762"></path>
</svg></svg>